<?xml version="1.0" standalone="no"?><!DOCTYPE svg PUBLIC "-//W3C//DTD SVG 1.1//EN" "http://www.w3.org/Graphics/SVG/1.1/DTD/svg11.dtd"><svg t="1711865407071" class="icon" viewBox="0 0 1024 1024" version="1.1" xmlns="http://www.w3.org/2000/svg" p-id="11132" xmlns:xlink="http://www.w3.org/1999/xlink" width="200" height="200"><path d="M832 170.666667H192a106.666667 106.666667 0 0 0-106.666667 106.666666v469.333334a106.666667 106.666667 0 0 0 106.666667 106.666666h640a106.666667 106.666667 0 0 0 106.666667-106.666666V277.333333a106.666667 106.666667 0 0 0-106.666667-106.666666z m21.333333 576a21.333333 21.333333 0 0 1-21.333333 21.333333H192a21.333333 21.333333 0 0 1-21.333333-21.333333V277.333333a21.333333 21.333333 0 0 1 21.333333-21.333333h640a21.333333 21.333333 0 0 1 21.333333 21.333333z" fill="#898FC3" p-id="11133"></path><path d="M744.32 305.92L512 460.8l-232.32-154.88a42.666667 42.666667 0 0 0-47.36 70.826667l256 170.666666a42.666667 42.666667 0 0 0 47.36 0l256-170.666666a42.666667 42.666667 0 0 0-47.36-70.826667z" fill="#898FC3" p-id="11134"></path></svg>